<svg width="20" height="20" viewBox="0 0 20 20" fill="none" xmlns="http://www.w3.org/2000/svg">
<path d="M6.66965 9.7014C7.44762 11.2919 8.73687 12.5753 10.3309 13.346C10.4475 13.4013 10.5765 13.4252 10.7052 13.4155C10.8339 13.4058 10.9579 13.3627 11.0648 13.2905L13.4119 11.7254C13.5157 11.6562 13.6352 11.6139 13.7594 11.6025C13.8837 11.5911 14.0088 11.6109 14.1235 11.66L18.5144 13.5419C18.6636 13.6052 18.7881 13.7154 18.8693 13.8556C18.9504 13.9959 18.9838 14.1588 18.9643 14.3197C18.8255 15.4057 18.2956 16.4039 17.4739 17.1273C16.6521 17.8508 15.5948 18.2499 14.5 18.25C11.1185 18.25 7.87548 16.9067 5.48439 14.5156C3.0933 12.1245 1.75 8.88148 1.75 5.49997C1.75006 4.40513 2.14918 3.34786 2.87264 2.5261C3.5961 1.70435 4.59428 1.17448 5.68028 1.03569C5.84117 1.01622 6.00403 1.04956 6.14432 1.1307C6.28461 1.21183 6.39473 1.33636 6.4581 1.48552L8.34158 5.88032C8.3903 5.994 8.41015 6.11796 8.39936 6.24116C8.38858 6.36436 8.3475 6.48299 8.27977 6.58647L6.72011 8.96957C6.64912 9.07677 6.60716 9.20056 6.59831 9.32883C6.58947 9.4571 6.61405 9.58547 6.66965 9.7014V9.7014Z" stroke="#514D50" stroke-width="2" stroke-linecap="round" stroke-linejoin="round"/>
</svg>
